<svg xmlns="http://www.w3.org/2000/svg" xmlns:xlink="http://www.w3.org/1999/xlink" x="0px" y="0px" width="344px" height="258px" viewBox="0 0 344 258">
 <!-- icon name comment-add--> 
<g transform="translate(19, 19)"><g class="nc-icon-wrapper" fill="#212121"> <path d="M8,20V44L20,34H43a3,3,0,0,0,3-3V11a3,3,0,0,0-3-3H20" fill="none" stroke="#212121" stroke-linecap="round" stroke-miterlimit="10" stroke-width="2" stroke-linejoin="round"/> <line x1="8" y1="2" x2="8" y2="14" fill="none" stroke="#212121" stroke-linecap="round" stroke-miterlimit="10" stroke-width="2" data-color="color-2" stroke-linejoin="round"/> <line x1="2" y1="8" x2="14" y2="8" fill="none" stroke="#212121" stroke-linecap="round" stroke-miterlimit="10" stroke-width="2" data-color="color-2" stroke-linejoin="round"/> </g></g>

 <!-- icon name timeline--> 
<g transform="translate(105, 19)"><g class="nc-icon-wrapper" fill="#212121"> <line x1="24" y1="2" x2="24" y2="46" fill="none" stroke="#212121" stroke-linecap="round" stroke-miterlimit="10" stroke-width="2" data-color="color-2" stroke-linejoin="round"/> <rect x="34" y="5" width="10" height="10" fill="none" stroke="#212121" stroke-linecap="round" stroke-miterlimit="10" stroke-width="2" stroke-linejoin="round"/> <line x1="29" y1="10" x2="24" y2="10" fill="none" stroke="#212121" stroke-linecap="round" stroke-miterlimit="10" stroke-width="2" data-color="color-2" stroke-linejoin="round"/> <rect x="34" y="33" width="10" height="10" fill="none" stroke="#212121" stroke-linecap="round" stroke-miterlimit="10" stroke-width="2" stroke-linejoin="round"/> <line x1="29" y1="38" x2="24" y2="38" fill="none" stroke="#212121" stroke-linecap="round" stroke-miterlimit="10" stroke-width="2" data-color="color-2" stroke-linejoin="round"/> <rect x="4" y="19" width="10" height="10" transform="translate(18 48) rotate(-180)" fill="none" stroke="#212121" stroke-linecap="round" stroke-miterlimit="10" stroke-width="2" stroke-linejoin="round"/> <line x1="19" y1="24" x2="24" y2="24" fill="none" stroke="#212121" stroke-linecap="round" stroke-miterlimit="10" stroke-width="2" data-color="color-2" stroke-linejoin="round"/> </g></g>

 <!-- icon name alarm-add--> 
<g transform="translate(191, 19)"><g class="nc-icon-wrapper" fill="#212121"> <path d="M30,40a6,6,0,0,1-12,0" fill="none" stroke="#212121" stroke-miterlimit="10" stroke-width="2" data-cap="butt" stroke-linecap="round"/> <path d="M24,2A14.041,14.041,0,0,0,10,16V26A27.669,27.669,0,0,1,6,40H42a27.669,27.669,0,0,1-4-14" fill="none" stroke="#212121" stroke-linecap="round" stroke-miterlimit="10" stroke-width="2" stroke-linejoin="round"/> <circle cx="37" cy="11" r="9" fill="none" stroke="#212121" stroke-linecap="round" stroke-miterlimit="10" stroke-width="2" data-color="color-2" stroke-linejoin="round"/> <line x1="37" y1="8" x2="37" y2="14" fill="none" stroke="#212121" stroke-linecap="round" stroke-miterlimit="10" stroke-width="2" data-color="color-2" stroke-linejoin="round"/> <line x1="34" y1="11" x2="40" y2="11" fill="none" stroke="#212121" stroke-linecap="round" stroke-miterlimit="10" stroke-width="2" data-color="color-2" stroke-linejoin="round"/> </g></g>

 <!-- icon name preferences--> 
<g transform="translate(277, 19)"><g class="nc-icon-wrapper" fill="#212121"><line fill="none" stroke="#212121" stroke-width="2" stroke-linecap="round" stroke-miterlimit="10" x1="22" y1="8" x2="46" y2="8" stroke-linejoin="round"/> <line fill="none" stroke="#212121" stroke-width="2" stroke-linecap="round" stroke-miterlimit="10" x1="2" y1="8" x2="8" y2="8" stroke-linejoin="round"/> <rect x="8" y="2" fill="none" stroke="#212121" stroke-width="2" stroke-linecap="round" stroke-miterlimit="10" width="8" height="12" stroke-linejoin="round"/> <line data-color="color-2" fill="none" stroke="#212121" stroke-width="2" stroke-linecap="round" stroke-miterlimit="10" x1="42" y1="24" x2="46" y2="24" stroke-linejoin="round"/> <line data-color="color-2" fill="none" stroke="#212121" stroke-width="2" stroke-linecap="round" stroke-miterlimit="10" x1="2" y1="24" x2="28" y2="24" stroke-linejoin="round"/> <rect data-color="color-2" x="28" y="18" fill="none" stroke="#212121" stroke-width="2" stroke-linecap="round" stroke-miterlimit="10" width="8" height="12" stroke-linejoin="round"/> <line fill="none" stroke="#212121" stroke-width="2" stroke-linecap="round" stroke-miterlimit="10" x1="22" y1="40" x2="46" y2="40" stroke-linejoin="round"/> <line fill="none" stroke="#212121" stroke-width="2" stroke-linecap="round" stroke-miterlimit="10" x1="2" y1="40" x2="8" y2="40" stroke-linejoin="round"/> <rect x="8" y="34" fill="none" stroke="#212121" stroke-width="2" stroke-linecap="round" stroke-miterlimit="10" width="8" height="12" stroke-linejoin="round"/></g></g>

 <!-- icon name like-2--> 
<g transform="translate(19, 105)"><g class="nc-icon-wrapper" fill="#212121"><path data-cap="butt" fill="none" stroke="#212121" stroke-width="2" stroke-miterlimit="10" d="M12,40l4.5,2.3 c2.3,1.1,4.9,1.8,7.5,1.8h14c2.2,0,4-1.8,4-4l2-16c0-2.2-1.8-4-4-4H30v-6c0-3.4-2.1-8-5-9.7c-1.3-0.8-3,0.2-3,1.7v8L12,26" stroke-linejoin="round" stroke-linecap="round"/> <rect data-color="color-2" x="4" y="22" fill="none" stroke="#212121" stroke-width="2" stroke-linecap="round" stroke-miterlimit="10" width="8" height="22" stroke-linejoin="round"/></g></g>

 <!-- icon name layers-3--> 
<g transform="translate(105, 105)"><g class="nc-icon-wrapper" fill="#212121"><polyline data-color="color-2" fill="none" stroke="#212121" stroke-width="2" stroke-linecap="round" stroke-miterlimit="10" points=" 41,22.2 44,24 24,36 4,24 7.333,22 " stroke-linejoin="round"/> <polyline data-color="color-2" fill="none" stroke="#212121" stroke-width="2" stroke-linecap="round" stroke-miterlimit="10" points=" 40.67,32.002 44,34 24,46 4,34 7.333,32 " stroke-linejoin="round"/> <polygon fill="none" stroke="#212121" stroke-width="2" stroke-linecap="round" stroke-miterlimit="10" points="4,14 24,2 44,14 24,26 " stroke-linejoin="round"/></g></g>

 <!-- icon name key-25--> 
<g transform="translate(191, 105)"><g class="nc-icon-wrapper" fill="#212121"><ellipse transform="matrix(0.7071 -0.7071 0.7071 0.7071 -20.5269 18.4437)" fill="none" stroke="#212121" stroke-width="2" stroke-linecap="round" stroke-miterlimit="10" cx="12" cy="34" rx="10" ry="10" stroke-linejoin="round"/> <line data-color="color-2" fill="none" stroke="#212121" stroke-width="2" stroke-linecap="round" stroke-miterlimit="10" x1="23" y1="23" x2="42" y2="4" stroke-linejoin="round"/> <polyline data-cap="butt" data-color="color-2" fill="none" stroke="#212121" stroke-width="2" stroke-miterlimit="10" points="38,8 45,15 38,22 31,15 " stroke-linejoin="round" stroke-linecap="round"/></g></g>

 <!-- icon name home-simple--> 
<g transform="translate(277, 105)"><g class="nc-icon-wrapper" fill="#212121"><polyline fill="none" stroke="#212121" stroke-width="2" stroke-linecap="round" stroke-miterlimit="10" points="39,25 39,46 28,46 28,36 20,36 20,46 9,46 9,25 " stroke-linejoin="round"/> <polyline data-color="color-2" fill="none" stroke="#212121" stroke-width="2" stroke-linecap="round" stroke-miterlimit="10" points=" 3,22 24,3 45,22 " stroke-linejoin="round"/></g></g>

 <!-- icon name favourite-remove-33--> 
<g transform="translate(19, 191)"><g class="nc-icon-wrapper" fill="#212121"><circle data-color="color-2" fill="none" stroke="#212121" stroke-width="2" stroke-linecap="round" stroke-miterlimit="10" cx="34" cy="36" r="10" stroke-linejoin="round"/> <line data-color="color-2" fill="none" stroke="#212121" stroke-width="2" stroke-linecap="round" stroke-miterlimit="10" x1="30" y1="36" x2="38" y2="36" stroke-linejoin="round"/> <polyline fill="none" stroke="#212121" stroke-width="2" stroke-linecap="round" stroke-miterlimit="10" points="18,38.697 11.64,42.04 14,28.276 4,18.528 17.82,16.52 24,4 30.18,16.52 44,18.528 40,22.427 " stroke-linejoin="round"/></g></g>

 <!-- icon name dashboard-level--> 
<g transform="translate(105, 191)"><g class="nc-icon-wrapper" fill="#212121"><path data-cap="butt" data-color="color-2" fill="none" stroke="#212121" stroke-width="2" stroke-miterlimit="10" d="M28,31h10.365 C39.402,28.882,40,26.512,40,24c0-8.822-7.178-16-16-16S8,15.178,8,24c0,2.512,0.598,4.882,1.635,7H20" stroke-linejoin="round" stroke-linecap="round"/> <line data-cap="butt" data-color="color-2" fill="none" stroke="#212121" stroke-width="2" stroke-miterlimit="10" x1="22.654" y1="27.232" x2="19" y2="17" stroke-linejoin="round" stroke-linecap="round"/> <circle fill="none" stroke="#212121" stroke-width="2" stroke-linecap="round" stroke-miterlimit="10" cx="24" cy="31" r="4" stroke-linejoin="round"/> <circle fill="none" stroke="#212121" stroke-width="2" stroke-linecap="round" stroke-miterlimit="10" cx="24" cy="24" r="22" stroke-linejoin="round"/></g></g>

 <!-- icon name check-circle-07--> 
<g transform="translate(191, 191)"><g class="nc-icon-wrapper" fill="#212121"><path data-cap="butt" fill="none" stroke="#212121" stroke-width="2" stroke-miterlimit="10" d="M41.3,18.7c0.5,1.7,0.7,3.4,0.7,5.3 c0,11-9,20-20,20S2,35,2,24S11,4,22,4c3.9,0,7.5,1.1,10.5,3" stroke-linejoin="round" stroke-linecap="round"/> <polyline data-color="color-2" fill="none" stroke="#212121" stroke-width="2" stroke-linecap="round" stroke-miterlimit="10" points=" 14,20 22,28 44,6 " stroke-linejoin="round"/></g></g>

 <!-- icon name chat-33--> 
<g transform="translate(277, 191)"><g class="nc-icon-wrapper" fill="#212121"><path data-color="color-2" fill="none" stroke="#212121" stroke-width="2" stroke-linecap="round" stroke-miterlimit="10" d=" M21.164,38.997C23.693,40.262,26.73,41,30,41c1.179,0,2.326-0.102,3.432-0.284L42,45v-8.081c2.482-2.114,4-4.881,4-7.919 c0-1.038-0.176-2.042-0.506-2.999" stroke-linejoin="round"/> <path fill="none" stroke="#212121" stroke-width="2" stroke-linecap="round" stroke-miterlimit="10" d="M22,2 C10.954,2,2,9.163,2,18c0,3.594,1.499,6.9,4,9.571V38l9.665-4.833C17.658,33.7,19.783,34,22,34c11.046,0,20-7.163,20-16 S33.046,2,22,2z" stroke-linejoin="round"/></g></g>
</svg>